<?xml version="1.0" encoding="UTF-8" standalone="no"?>
<!-- Created with Inkscape (http://www.inkscape.org/) -->

<svg
   xmlns:dc="http://purl.org/dc/elements/1.1/"
   xmlns:cc="http://creativecommons.org/ns#"
   xmlns:rdf="http://www.w3.org/1999/02/22-rdf-syntax-ns#"
   xmlns:svg="http://www.w3.org/2000/svg"
   xmlns="http://www.w3.org/2000/svg"
   xmlns:sodipodi="http://sodipodi.sourceforge.net/DTD/sodipodi-0.dtd"
   xmlns:inkscape="http://www.inkscape.org/namespaces/inkscape"
   id="svg2"
   version="1.1"
   inkscape:version="0.91 r13725"
   width="284"
   height="284"
   viewBox="0 0 284 284"
   sodipodi:docname="logo-square.svg">
  <metadata
     id="metadata8">
    <rdf:RDF>
      <cc:Work
         rdf:about="">
        <dc:format>image/svg+xml</dc:format>
        <dc:type
           rdf:resource="http://purl.org/dc/dcmitype/StillImage" />
        <dc:title></dc:title>
      </cc:Work>
    </rdf:RDF>
  </metadata>
  <defs
     id="defs6" />
  <sodipodi:namedview
     pagecolor="#ffffff"
     bordercolor="#666666"
     borderopacity="1"
     objecttolerance="10"
     gridtolerance="10"
     guidetolerance="10"
     inkscape:pageopacity="0"
     inkscape:pageshadow="2"
     inkscape:window-width="1920"
     inkscape:window-height="1103"
     id="namedview4"
     showgrid="false"
     inkscape:zoom="0.83098592"
     inkscape:cx="142"
     inkscape:cy="139.59322"
     inkscape:window-x="0"
     inkscape:window-y="27"
     inkscape:window-maximized="1"
     inkscape:current-layer="svg2" />
  <path
     style="fill:#2e3842;fill-opacity:0.89411765"
     d="m 1.2034019,140.79661 0,-141.9999966 141.9999981,0 142,0 0,141.9999966 0,142 -142,0 -141.9999981,0 0,-142 z M 157.58752,267.78385 c 39.07654,-3.79992 66.36722,-24.3541 77.79833,-58.5944 3.28657,-9.84445 3.09138,-23.66062 -0.5,-35.39284 -7.87964,-25.74095 -28.22687,-43.1477 -70.18245,-60.04003 -33.98088,-13.68153 -44.49252,-20.523501 -44.49252,-28.959966 0,-3.953455 3.4561,-8.600606 8.67985,-11.67112 4.4074,-2.59066 5.61266,-2.822382 14.31267,-2.75172 16.85624,0.136909 26.70997,5.021774 32.30294,16.013785 3.32058,6.526017 8.83597,11.856452 15.5584,15.036671 4.88923,2.31297 6.4254,2.55565 13.74551,2.17144 l 8.24112,-0.43255 -2.42399,4.7835 c -4.44043,8.76278 -2.77484,16.55197 4.15888,19.44906 3.78742,1.58248 7.4197,0.67035 11.11527,-2.79126 3.48522,-3.26458 3.68529,-6.74793 0.85319,-14.85404 -3.27045,-9.36073 -3.27234,-13.588733 -0.008,-18.009486 3.57992,-4.848233 5.81303,-13.204842 5.17599,-19.369303 C 230.7185,60.719536 222.65358,44.757716 212.90566,34.733847 196.26375,17.620821 173.68988,9.7771284 141.2034,9.8196224 107.88393,9.8632024 85.230932,19.673509 69.674312,40.796614 c -6.02369,8.179096 -13.47761,28.901887 -13.46717,37.44039 l 0.004,3.05961 1.8342,-3 c 1.00881,-1.65 2.54226,-3.584513 3.40767,-4.298917 1.39799,-1.154066 1.5129,-0.847396 1.03039,2.75 -0.29869,2.226904 -0.14633,4.02142 0.33859,3.987813 0.48492,-0.03361 2.23942,-1.93101 3.8989,-4.216452 2.91916,-4.020229 15.99189,-15.722444 17.56383,-15.722444 0.42575,0 -0.65581,2.772521 -2.40346,6.161159 -2.70346,5.241891 -3.17418,7.218839 -3.1549,13.25 0.0277,8.677053 1.51871,11.984238 9.57403,21.236367 7.90445,9.07885 12.286318,17.92026 12.352808,24.9246 l 0.0505,5.31934 2.70386,-2.58862 c 3.67856,-3.52178 6.10807,-8.82325 6.7557,-14.74167 l 0.54044,-4.93882 2.83623,4.29768 c 6.13799,9.30077 7.70841,24.11255 3.77237,35.57996 -1.13268,3.3 -2.07049,6.26527 -2.08401,6.58948 -0.035,0.83999 3.54722,2.38021 19.97541,8.58858 7.975,3.01382 17.2,6.98448 20.5,8.82368 14.04536,7.82793 17.95083,17.56617 10.21714,25.47637 -14.34218,14.66953 -45.06426,10.5188 -53.58298,-7.23937 -1.11835,-2.33131 -2.61854,-7.83874 -3.33376,-12.23874 -1.23775,-7.61456 -1.43307,-8.01526 -4.05403,-8.31677 -2.47105,-0.28427 -44.584318,8.49947 -52.407938,10.93094 -1.73887,0.54041 -3.3593,1.5233 -3.60097,2.1842 -0.24166,0.6609 -0.0398,5.02663 0.44869,9.70163 5.51401,52.776 45.45547,80.08851 108.197968,73.98724 z"
     id="path4140"
     inkscape:connector-curvature="0" />
</svg>
